<mxfile host="app.diagrams.net" modified="2023-04-17T06:43:20.756Z" agent="Mozilla/5.0 (Windows NT 10.0; Win64; x64) AppleWebKit/537.36 (KHTML, like Gecko) Chrome/112.0.0.0 Safari/537.36 Edg/112.0.1722.48" version="21.1.8" etag="h5_hobMdStiF_cKlYx-P" type="github">
  <diagram name="第 1 页" id="8lQIT54-kyNw0EfFA0-A">
    <mxGraphModel>
      <root>
        <mxCell id="0" />
        <mxCell id="1" parent="0" />
      </root>
    </mxGraphModel>
  </diagram>
</mxfile>
